HIERARCHY
ROOT Hips
{
	OFFSET 0.000000 0.000000 0.000000
	CHANNELS 6 Xposition Yposition Zposition Zrotation Yrotation Xrotation 
	JOINT LeftUpLeg_virtual
	{
		OFFSET 0.000000 0.000000 0.000000
		CHANNELS 3 Zrotation Yrotation Xrotation
		JOINT LeftUpLeg
		{
			OFFSET 8.479694 -4.795517 -0.379053
			CHANNELS 3 Zrotation Yrotation Xrotation
			JOINT LeftLeg
			{
				OFFSET 0.485052 -32.551468 0.112863
				CHANNELS 3 Zrotation Yrotation Xrotation
				JOINT LeftFoot
				{
					OFFSET 0.438033 -32.635670 -3.012641
					CHANNELS 3 Zrotation Yrotation Xrotation
					JOINT LeftToeBase
					{
						OFFSET 0.970169 -13.225353 11.864223
						CHANNELS 3 Zrotation Yrotation Xrotation
						End Site
						{
							OFFSET 0.000000 0.000000 0.000000
						}
					}
				}
			}
		}
	}
	JOINT RightUpLeg_virtual
	{
		OFFSET 0.000000 0.000000 0.000000
		CHANNELS 3 Zrotation Yrotation Xrotation
		JOINT RightUpLeg
		{
			OFFSET -8.479694 -4.795517 -0.379053
			CHANNELS 3 Zrotation Yrotation Xrotation
			JOINT RightLeg
			{
				OFFSET -0.484100 -32.551483 0.112903
				CHANNELS 3 Zrotation Yrotation Xrotation
				JOINT RightFoot
				{
					OFFSET -0.438985 -32.635651 -3.012681
					CHANNELS 3 Zrotation Yrotation Xrotation
					JOINT RightToeBase
					{
						OFFSET -0.970169 -13.225354 11.864223
						CHANNELS 3 Zrotation Yrotation Xrotation
						End Site
						{
							OFFSET 0.000000 0.000000 0.000000
						}
					}
				}
			}
		}
	}
	JOINT Spine_virtual
	{
		OFFSET 0.000000 0.000000 0.000000
		CHANNELS 3 Zrotation Yrotation Xrotation
		JOINT Spine
		{
			OFFSET 0.000000 7.722015 1.166203
			CHANNELS 3 Zrotation Yrotation Xrotation
			JOINT Spine1
			{
				OFFSET 0.000000 12.024086 0.248766
				CHANNELS 3 Zrotation Yrotation Xrotation
				JOINT Spine2
				{
					OFFSET -0.000000 11.503036 -0.491240
					CHANNELS 3 Zrotation Yrotation Xrotation
					JOINT Neck_virtual
					{
						OFFSET 0.000000 0.000000 0.000000
						CHANNELS 3 Zrotation Yrotation Xrotation
						JOINT Neck
						{
							OFFSET 0.000000 18.430687 -3.123054
							CHANNELS 3 Zrotation Yrotation Xrotation
							JOINT Head
							{
								OFFSET -0.000000 9.051071 1.034021
								CHANNELS 3 Zrotation Yrotation Xrotation
								End Site
								{
									OFFSET 0.000000 0.000000 0.000000
								}
							}
						}
					}
					JOINT LeftShoulder_virtual
					{
						OFFSET 0.000000 0.000000 0.000000
						CHANNELS 3 Zrotation Yrotation Xrotation
						JOINT LeftShoulder
						{
							OFFSET 6.197824 13.665230 -4.064723
							CHANNELS 3 Zrotation Yrotation Xrotation
							JOINT LeftArm
							{
								OFFSET 7.778132 -0.187073 -1.709282
								CHANNELS 3 Zrotation Yrotation Xrotation
								JOINT LeftForeArm
								{
									OFFSET 21.954697 0.000000 -2.041093
									CHANNELS 3 Zrotation Yrotation Xrotation
									JOINT LeftHand
									{
										OFFSET 22.992908 0.000000 -0.870901
										CHANNELS 3 Zrotation Yrotation Xrotation
										End Site
										{
											OFFSET 0.000000 0.000000 0.000000
										}
									}
								}
							}
						}
					}
					JOINT RightShoulder_virtual
					{
						OFFSET 0.000000 0.000000 0.000000
						CHANNELS 3 Zrotation Yrotation Xrotation
						JOINT RightShoulder
						{
							OFFSET -6.197824 13.665230 -4.064723
							CHANNELS 3 Zrotation Yrotation Xrotation
							JOINT RightArm
							{
								OFFSET -7.778132 -0.187073 -1.709282
								CHANNELS 3 Zrotation Yrotation Xrotation
								JOINT RightForeArm
								{
									OFFSET -21.954697 0.000000 -2.041093
									CHANNELS 3 Zrotation Yrotation Xrotation
									JOINT RightHand
									{
										OFFSET -22.992908 0.000000 -0.870901
										CHANNELS 3 Zrotation Yrotation Xrotation
										End Site
										{
											OFFSET 0.000000 0.000000 0.000000
										}
									}
								}
							}
						}
					}
				}
			}
		}
	}
}
MOTION
Frames: 12
Frame Time: 0.033333
17.935196 79.654015 5.799037 -179.564430 -6.799601 -179.854686 -2.134358 -6.092384 10.325718 -3.262450 14.482434 -30.801165 10.497311 -0.015622 45.827619 -4.343690 -11.530887 8.820421 0.000000 0.000000 0.000000 1.229468 -4.569144 9.701148 12.855680 -3.681929 -21.910467 0.521160 6.441029 31.287170 5.824417 2.937770 -3.332119 0.000000 0.000000 0.000000 2.040316 -2.573430 2.747509 3.716227 1.299362 -8.216683 -1.722441 -2.056457 10.882832 -0.045590 -0.103387 0.019379 -1.693042 -0.672919 8.575834 -14.032070 -1.598500 -2.824991 0.000000 0.000000 0.000000 0.440926 -0.080202 4.705541 6.450348 6.544744 5.670647 -27.425708 -4.580010 -53.486030 -4.507927 -57.912511 4.772478 0.000000 0.000000 0.000000 -4.903716 1.659409 3.406482 25.082041 13.565335 13.377446 64.000170 -14.673058 6.101640 -157.278165 70.577943 -159.783902 0.000000 0.000000 0.000000 
17.964691 79.653130 5.825162 -179.511073 -6.534270 -179.871324 -2.048448 -5.988464 10.323079 -3.313626 14.530314 -30.824080 10.504470 -0.029439 45.839093 -4.416721 -11.436153 8.871734 0.000000 0.000000 0.000000 1.216221 -4.421058 9.645227 12.897409 -3.493345 -21.874663 0.486526 6.388502 31.357849 5.901648 2.848261 -3.291765 0.000000 0.000000 0.000000 2.105916 -2.498487 2.647839 3.758382 1.393242 -8.174054 -1.588850 -1.953587 10.900599 -0.042077 -0.130507 0.057748 -1.592669 -0.628876 8.511381 -13.734803 -1.708188 -2.883411 0.000000 0.000000 0.000000 0.493454 -0.144305 4.771780 6.142267 5.959281 6.102565 -27.768902 -3.848312 -51.699525 -4.425771 -60.616324 6.618330 0.000000 0.000000 0.000000 -4.899978 1.728344 3.349881 25.253520 13.345434 13.579192 63.729217 -14.817679 6.068358 -157.380536 70.745023 -159.887926 0.000000 0.000000 0.000000 
17.983278 79.654007 5.844187 -179.497426 -6.531438 -179.853921 -1.996046 -6.012259 10.316693 -3.371765 14.596683 -30.880737 10.514070 -0.074531 45.844175 -4.479537 -11.346186 8.937620 0.000000 0.000000 0.000000 1.273607 -4.386969 9.606069 12.852639 -3.437068 -21.922986 0.449783 6.276566 31.427531 6.000815 2.752923 -3.248307 0.000000 0.000000 0.000000 2.131995 -2.495408 2.555753 3.789584 1.415793 -8.242048 -1.456881 -1.961771 10.956972 -0.008049 -0.125617 0.053268 -1.495812 -0.707641 8.587406 -13.391185 -1.737316 -2.918804 0.000000 0.000000 0.000000 0.583976 -0.140373 4.804773 5.665955 5.205016 6.769563 -28.368574 -3.264594 -48.478487 -4.392090 -64.698967 8.945722 0.000000 0.000000 0.000000 -4.811072 1.699624 3.412690 25.201229 13.196920 13.826315 63.736313 -14.789948 5.824086 -157.915217 70.928386 -160.681238 0.000000 0.000000 0.000000 
17.979202 79.653954 5.851250 -179.519747 -6.832019 -179.808732 -1.986708 -6.232634 10.289404 -3.444748 14.675059 -30.963235 10.514075 -0.117715 45.874433 -4.554180 -11.294794 9.003823 0.000000 0.000000 0.000000 1.294717 -4.554210 9.594759 12.802647 -3.462155 -22.034667 0.411394 6.106582 31.484293 6.102057 2.650020 -3.200583 0.000000 0.000000 0.000000 2.143386 -2.553225 2.402667 3.852862 1.362923 -8.322897 -1.352462 -2.065066 11.076852 -0.038442 -0.160707 0.015450 -1.308932 -0.681421 8.712232 -12.889510 -1.790526 -2.890596 0.000000 0.000000 0.000000 0.706211 -0.169988 4.769700 5.210660 4.450569 7.385179 -29.708215 -2.772904 -43.459411 -5.446596 -70.333299 12.813439 0.000000 0.000000 0.000000 -4.659183 1.665576 3.488557 25.207245 12.937832 14.065241 63.678181 -14.637618 5.741913 -158.104823 71.004761 -160.953476 0.000000 0.000000 0.000000 
17.928028 79.643059 5.850599 -179.522192 -6.551220 -179.807571 -1.994848 -6.102850 10.314990 -3.529567 14.959158 -31.021848 10.511827 -0.165772 45.917019 -4.517279 -11.194553 8.954672 0.000000 0.000000 0.000000 1.396356 -4.313958 9.614164 12.678724 -3.421666 -22.139993 0.404348 6.173178 31.591879 6.285040 2.615348 -3.135224 0.000000 0.000000 0.000000 2.120129 -2.469088 2.314394 3.952519 1.483880 -8.421966 -1.219064 -1.954113 11.161899 -0.045566 -0.151418 0.029868 -1.126653 -0.659194 8.841964 -12.385652 -1.814811 -2.948309 0.000000 0.000000 0.000000 0.890626 -0.179469 4.910014 4.472591 3.630298 8.036276 -31.944573 -2.377210 -36.709221 -9.086827 -76.631587 19.414318 0.000000 0.000000 0.000000 -4.513116 1.637916 3.586155 25.215641 12.618897 14.172583 63.680210 -14.420172 5.839933 -158.038351 71.110425 -160.973393 0.000000 0.000000 0.000000 
17.836695 79.621109 5.833393 -179.476034 -6.489303 -179.792859 -2.034469 -6.134382 10.311492 -3.605790 15.219489 -31.117707 10.504814 -0.242002 46.074294 -4.465261 -11.129191 8.868105 0.000000 0.000000 0.000000 1.439493 -4.330724 9.660089 12.618489 -3.367549 -22.283841 0.428900 6.220066 31.719679 6.444231 2.592102 -3.130094 0.000000 0.000000 0.000000 2.143068 -2.519187 2.165367 4.151293 1.455764 -8.525761 -1.096754 -1.970865 11.262669 -0.066602 -0.165012 0.038723 -0.958944 -0.685628 8.963262 -11.740970 -1.950574 -2.964198 0.000000 0.000000 0.000000 0.973150 -0.193426 4.941067 3.396164 2.971933 8.878811 -35.251054 -1.938626 -28.436425 -18.615646 -82.413049 31.933272 0.000000 0.000000 0.000000 -4.394505 1.666925 3.646003 25.200280 12.204213 14.251708 63.589061 -14.042382 5.979924 -158.291956 71.276842 -161.347332 0.000000 0.000000 0.000000 
17.732443 79.593063 5.789898 -179.469641 -6.243924 -179.770251 -2.091370 -6.072219 10.342276 -3.730622 15.506355 -31.237751 10.474278 -0.316619 46.245257 -4.366166 -11.062210 8.782436 0.000000 0.000000 0.000000 1.431586 -4.239433 9.735819 12.545273 -3.288607 -22.457327 0.455868 6.312258 31.910405 6.594904 2.583981 -3.202986 0.000000 0.000000 0.000000 2.136894 -2.514254 2.045413 4.392761 1.466300 -8.648674 -0.977800 -1.963108 11.335400 -0.100931 -0.185834 0.037416 -0.798069 -0.607845 9.071664 -11.170867 -2.098354 -2.979907 0.000000 0.000000 0.000000 1.097322 -0.219720 4.972989 1.977143 2.454345 9.515900 -39.787457 -1.093494 -19.030457 -48.957929 -86.353849 65.114475 0.000000 0.000000 0.000000 -4.250222 1.642113 3.768235 25.101666 11.678686 14.120362 63.444753 -13.659770 6.320742 -158.237465 71.420563 -161.410744 0.000000 0.000000 0.000000 
17.634085 79.563423 5.756469 -179.463357 -5.931948 -179.795345 -2.129637 -5.910517 10.405753 -3.882723 15.697600 -31.382660 10.417516 -0.426558 46.410862 -4.248383 -10.993301 8.715024 0.000000 0.000000 0.000000 1.429814 -4.121717 9.865720 12.443228 -3.153126 -22.637875 0.479316 6.417947 32.155107 6.698611 2.576892 -3.361080 0.000000 0.000000 0.000000 2.159528 -2.406188 2.023572 4.685815 1.506980 -8.790856 -0.863040 -1.912854 11.376693 -0.075364 -0.144475 0.030559 -0.693382 -0.631001 9.192219 -10.527804 -2.220360 -2.931243 0.000000 0.000000 0.000000 1.108287 -0.221365 5.180667 0.175563 1.957944 10.274670 -44.896346 -0.067963 -9.651304 -100.596174 -86.958629 119.434136 0.000000 0.000000 0.000000 -4.147668 1.516451 3.855870 25.020825 11.082941 14.153361 63.170842 -13.126644 6.949133 -157.656776 71.444544 -160.942862 0.000000 0.000000 0.000000 
17.577171 79.540634 5.718197 -179.467209 -5.662053 -179.800523 -2.122207 -5.802302 10.512775 -4.040703 15.797469 -31.512280 10.327873 -0.580345 46.486479 -4.126387 -10.917987 8.689334 0.000000 0.000000 0.000000 1.337639 -4.039048 10.030667 12.443917 -3.002961 -22.830624 0.501413 6.366748 32.383638 6.783450 2.568347 -3.540862 0.000000 0.000000 0.000000 2.194115 -2.341963 2.040307 4.987130 1.466393 -8.929384 -0.770371 -1.956685 11.395576 -0.044116 -0.138441 0.054961 -0.675471 -0.769959 9.215461 -10.124413 -2.222197 -2.985445 0.000000 0.000000 0.000000 1.157564 -0.224800 5.181104 -1.588035 1.744132 10.779546 -50.314138 1.463053 -0.682075 -124.531383 -86.430532 145.807600 0.000000 0.000000 0.000000 -4.083777 1.610117 3.906192 24.889433 10.513413 14.028969 62.842002 -12.644321 7.370469 -157.954586 71.436088 -161.382603 0.000000 0.000000 0.000000 
17.569790 79.528633 5.691617 -179.420477 -5.281507 -179.796028 -2.055128 -5.598612 10.628617 -4.139359 15.768964 -31.632949 10.254162 -0.819682 46.496878 -3.973754 -10.815665 8.609524 0.000000 0.000000 0.000000 1.332015 -3.908507 10.164545 12.451817 -2.812997 -22.972213 0.548737 6.257565 32.588783 6.872944 2.581276 -3.730034 0.000000 0.000000 0.000000 2.333621 -2.192081 2.079488 5.293064 1.543565 -9.061516 -0.721694 -1.924832 11.403797 -0.016162 -0.147880 0.021164 -0.683053 -0.818174 9.253333 -9.673086 -2.546757 -3.038455 0.000000 0.000000 0.000000 1.178148 -0.329477 5.224584 -3.061841 1.505782 11.246982 -55.232765 2.782245 7.295323 -132.807564 -86.448571 156.238774 0.000000 0.000000 0.000000 -4.098367 1.641016 3.893070 24.840916 9.804628 13.881489 62.620151 -12.186666 7.939286 -157.377066 71.263448 -161.094438 0.000000 0.000000 0.000000 
17.608755 79.526237 5.677176 -179.458467 -4.823939 -179.833963 -2.034983 -5.443913 10.723903 -4.234345 15.689071 -31.618356 10.090352 -0.990939 46.453616 -3.837570 -10.715772 8.542683 0.000000 0.000000 0.000000 1.147884 -3.843444 10.271037 12.498511 -2.606675 -23.010795 0.556747 6.143656 32.763028 6.927024 2.541676 -3.962239 0.000000 0.000000 0.000000 2.329674 -1.958734 2.082633 5.502054 1.504480 -9.123435 -0.610637 -2.009527 11.419242 -0.040939 -0.146578 0.038967 -0.534084 -0.889270 9.317033 -9.356236 -2.533767 -3.029771 0.000000 0.000000 0.000000 1.275554 -0.368437 5.241520 -4.122296 1.402860 11.438892 -59.242568 3.724007 14.074753 -139.184133 -86.835166 164.429236 0.000000 0.000000 0.000000 -3.891908 1.564575 3.956208 24.528212 9.316414 13.701202 62.381716 -11.600357 8.342068 -157.216365 71.234515 -161.274509 0.000000 0.000000 0.000000 
17.694607 79.522873 5.630432 -179.503915 -4.415704 -179.830384 -2.037900 -5.507611 10.796612 -4.302022 15.482661 -31.540359 10.051892 -1.167545 46.361599 -3.827336 -10.731109 8.543324 0.000000 0.000000 0.000000 0.969591 -3.856785 10.313607 12.630105 -2.431159 -22.976797 0.626013 5.934594 32.832552 6.962153 2.478062 -4.189907 0.000000 0.000000 0.000000 2.321026 -1.693470 1.977550 5.633215 1.502447 -9.196381 -0.526891 -2.111947 11.481082 -0.042737 -0.149909 0.001333 -0.468534 -0.854508 9.388580 -9.041018 -3.003547 -2.939157 0.000000 0.000000 0.000000 1.370462 -0.427489 5.291243 -4.482819 1.177542 11.633219 -61.812317 3.810919 19.451766 -144.247844 -87.122471 170.883956 0.000000 0.000000 0.000000 -3.792002 1.495946 3.943227 24.381328 8.814453 13.451118 62.207847 -11.289920 9.224900 -156.178450 71.072025 -160.651350 0.000000 0.000000 0.000000 
